<svg xmlns="http://www.w3.org/2000/svg" viewBox="0 0 133.729 125.662">
  <g id="box" transform="translate(0 -15.407)">
    <g id="Group_16" data-name="Group 16" transform="translate(0 15.407)">
      <path id="Path_148" data-name="Path 148" d="M131.643,62.053l-11.8-6.861,11.8-6.836a4.191,4.191,0,0,0-.1-7.305L85.466,15.919a4.212,4.212,0,0,0-4.1.05L66.869,24.4,52.376,15.969a4.189,4.189,0,0,0-4.1-.05L2.2,41.051a4.18,4.18,0,0,0-.109,7.3l11.8,6.836-11.8,6.861a4.2,4.2,0,0,0,.092,7.305l14.577,8v34.4a4.157,4.157,0,0,0,2.186,3.669l46.076,25.132c.05.025.109.017.159.042a4.043,4.043,0,0,0,1.843.478,4.105,4.105,0,0,0,1.851-.478c.05-.025.109-.017.159-.042l46.076-25.132a4.166,4.166,0,0,0,2.178-3.669V77.183L131.55,69.35a4.188,4.188,0,0,0,.092-7.3ZM83.531,24.405l37.464,20.424-9.508,5.5L75.2,29.247ZM12.742,44.838,50.206,24.414l8.327,4.842L22.242,50.333Zm-.034,20.726,9.533-5.537L58.5,81.02,49.9,86Zm50.122,64.263-37.7-20.566V81.95L47.944,94.474a4.186,4.186,0,0,0,4.113-.042l10.773-6.241Zm4.03-53.657-36.274-21L66.86,34.09l36.274,21.078Zm42.046,33.091-37.7,20.566V88.367l10.463,6.057a4.112,4.112,0,0,0,2.1.57,4.156,4.156,0,0,0,2.011-.519l23.122-12.692ZM83.833,85.987l-8.6-4.976,36.257-20.994,9.533,5.546Z" transform="translate(0 -15.407)" fill="#111"/>
    </g>
  </g>
</svg>
