<svg xmlns="http://www.w3.org/2000/svg" viewBox="0 0 22.905 24">
  <g id="cogwheel" transform="translate(-0.548)">
    <path id="Path_197" data-name="Path 197" d="M22.54,14.573s0,0,0,0L21.058,13.21a9.67,9.67,0,0,0,0-2.42l1.483-1.362a1.46,1.46,0,0,0,.269-1.783L21.179,4.824a1.448,1.448,0,0,0-1.689-.656l-1.919.606A8.772,8.772,0,0,0,15.48,3.56l-.443-1.97a1.447,1.447,0,0,0-1.4-1.126H10.366a1.446,1.446,0,0,0-1.4,1.125L8.52,3.559A8.791,8.791,0,0,0,6.429,4.773l-1.92-.606a1.448,1.448,0,0,0-1.684.65L1.188,7.65a1.459,1.459,0,0,0,.276,1.781L2.942,10.79a9.67,9.67,0,0,0,0,2.42L1.46,14.573a1.46,1.46,0,0,0-.269,1.783l1.631,2.821a1.446,1.446,0,0,0,1.689.656l1.919-.606a8.772,8.772,0,0,0,2.091,1.214l.443,1.969a1.448,1.448,0,0,0,1.4,1.127h3.269a1.446,1.446,0,0,0,1.4-1.125l.444-1.971a8.791,8.791,0,0,0,2.091-1.214l1.921.606a1.443,1.443,0,0,0,1.683-.651l1.638-2.832a1.457,1.457,0,0,0-.273-1.777Z" fill="#ffc107"/>
    <circle id="Ellipse_14" data-name="Ellipse 14" cx="5" cy="5" r="5" transform="translate(7 7)" fill="#fff"/>
    <path id="Path_198" data-name="Path 198" d="M12,17a5,5,0,1,1,5-5A5.006,5.006,0,0,1,12,17Zm0-8.5A3.5,3.5,0,1,0,15.5,12,3.5,3.5,0,0,0,12,8.5Z"/>
    <path id="Path_199" data-name="Path 199" d="M13.663,24H10.337a1.734,1.734,0,0,1-1.681-1.351l-.421-1.872a9.2,9.2,0,0,1-1.954-1.135l-1.823.576a1.733,1.733,0,0,1-2.024-.789L.776,16.562A1.748,1.748,0,0,1,1.1,14.428l1.413-1.3A10.082,10.082,0,0,1,2.446,12a10.321,10.321,0,0,1,.063-1.129L1.1,9.578A1.746,1.746,0,0,1,.771,7.447L2.439,4.562A1.734,1.734,0,0,1,4.455,3.78l1.826.577A9.2,9.2,0,0,1,8.235,3.222l.422-1.874A1.733,1.733,0,0,1,10.337,0h3.326a1.734,1.734,0,0,1,1.681,1.351l.421,1.872a9.2,9.2,0,0,1,1.954,1.135l1.823-.576a1.735,1.735,0,0,1,2.024.789l1.658,2.867A1.748,1.748,0,0,1,22.9,9.572l-1.413,1.3a10.148,10.148,0,0,1,0,2.258L22.9,14.421l.007.006a1.744,1.744,0,0,1,.326,2.125l-1.668,2.885a1.729,1.729,0,0,1-2.017.781l-1.826-.577a9.2,9.2,0,0,1-1.954,1.135l-.422,1.874A1.731,1.731,0,0,1,13.663,24ZM6.434,18.059a.75.75,0,0,1,.477.171A7.7,7.7,0,0,0,9.14,19.523a.749.749,0,0,1,.472.539l.509,2.26a.225.225,0,0,0,.217.178h3.326a.223.223,0,0,0,.216-.176l.51-2.262a.749.749,0,0,1,.472-.539,7.716,7.716,0,0,0,2.229-1.293.748.748,0,0,1,.7-.137l2.2.695a.224.224,0,0,0,.265-.092l1.668-2.885a.244.244,0,0,0-.048-.289L20.192,13.97a.75.75,0,0,1-.234-.663,8.69,8.69,0,0,0,0-2.616.751.751,0,0,1,.234-.663l1.692-1.556a.244.244,0,0,0,.039-.294L20.265,5.311a.23.23,0,0,0-.272-.1l-2.2.694a.749.749,0,0,1-.7-.137,7.7,7.7,0,0,0-2.229-1.293.749.749,0,0,1-.472-.539l-.509-2.26a.229.229,0,0,0-.219-.176H10.337a.223.223,0,0,0-.216.176l-.51,2.262a.751.751,0,0,1-.472.539A7.7,7.7,0,0,0,6.911,5.77a.752.752,0,0,1-.7.137l-2.2-.7a.227.227,0,0,0-.265.092L2.074,8.188a.245.245,0,0,0,.051.292l1.686,1.549a.75.75,0,0,1,.234.663,8.69,8.69,0,0,0,0,2.616.751.751,0,0,1-.234.663L2.119,15.527a.244.244,0,0,0-.039.294l1.658,2.867a.23.23,0,0,0,.272.1l2.2-.694a.73.73,0,0,1,.226-.035Z"/>
  </g>
</svg>
