<svg id="color" xmlns="http://www.w3.org/2000/svg" viewBox="0 0 45.158 45.158">
  <path id="Path_190" data-name="Path 190" d="M22.232.95C10.387.95.75,10.621.75,21.93V32.8a9.89,9.89,0,0,0,10.1,9.641c5.569,0,8.687-4.326,8.687-9.641V30.289c0-1.6,2.773-3.838,4.446-3.838s3.976,2.241,3.976,3.838V34.47c0,4.4,2.8,7.97,7.406,7.97a7.77,7.77,0,0,0,7.876-7.97V21.93A21.015,21.015,0,0,0,22.232.95Z" transform="translate(0.661 0.837)" fill="#eceff1"/>
  <circle id="Ellipse_8" data-name="Ellipse 8" cx="5.08" cy="5.08" r="5.08" transform="translate(5.268 28.788)" fill="#2196f3"/>
  <circle id="Ellipse_9" data-name="Ellipse 9" cx="5.927" cy="5.927" r="5.927" transform="translate(6.303 12.889)" fill="#4caf50"/>
  <circle id="Ellipse_10" data-name="Ellipse 10" cx="6.774" cy="6.774" r="6.774" transform="translate(22.391 8.279)" fill="#ffc107"/>
  <circle id="Ellipse_11" data-name="Ellipse 11" cx="4.234" cy="4.234" r="4.234" transform="translate(32.457 24.931)" fill="#f44336"/>
  <path id="Path_191" data-name="Path 191" d="M36.384,45.158a8.784,8.784,0,0,1-8.774-8.774v-4.6a3.19,3.19,0,0,0-6.38,0v2.762a10.615,10.615,0,0,1-21.23,0V22.579a22.579,22.579,0,1,1,45.158,0V36.384a8.784,8.784,0,0,1-8.774,8.774ZM24.419,25.77a6.021,6.021,0,0,1,6.014,6.012v4.6a5.951,5.951,0,1,0,11.9,0V22.579a19.757,19.757,0,1,0-39.513,0V34.544a7.793,7.793,0,0,0,15.585,0V31.782a6.018,6.018,0,0,1,6.012-6.012Z" transform="translate(0 0)"/>
  <path id="Path_192" data-name="Path 192" d="M8.145,26.289a5.645,5.645,0,1,1,5.645-5.645A5.652,5.652,0,0,1,8.145,26.289Zm0-8.467a2.822,2.822,0,1,0,2.822,2.822A2.826,2.826,0,0,0,8.145,17.822Z" transform="translate(2.204 13.224)"/>
  <path id="Path_193" data-name="Path 193" d="M21.7,22.408a4.7,4.7,0,1,1,4.7-4.7A4.71,4.71,0,0,1,21.7,22.408Zm0-6.585A1.882,1.882,0,1,0,23.585,17.7,1.885,1.885,0,0,0,21.7,15.822Z" transform="translate(14.987 11.46)"/>
  <path id="Path_194" data-name="Path 194" d="M9.585,19.671a6.586,6.586,0,1,1,6.585-6.586A6.593,6.593,0,0,1,9.585,19.671Zm0-10.349a3.763,3.763,0,1,0,3.763,3.763A3.767,3.767,0,0,0,9.585,9.322Z" transform="translate(2.645 5.73)"/>
  <path id="Path_195" data-name="Path 195" d="M19.026,19.053a7.526,7.526,0,1,1,7.526-7.526A7.534,7.534,0,0,1,19.026,19.053Zm0-12.23a4.7,4.7,0,1,0,4.7,4.7A4.71,4.71,0,0,0,19.026,6.822Z" transform="translate(10.138 3.526)"/>
</svg>
