<svg id="wireframe" xmlns="http://www.w3.org/2000/svg" viewBox="0 0 37.957 37.957">
  <path id="Path_82" data-name="Path 82" d="M2.768,33.6H14.629A2.771,2.771,0,0,0,17.4,30.828V10.268A2.771,2.771,0,0,0,14.629,7.5H2.768A2.771,2.771,0,0,0,0,10.268v20.56A2.771,2.771,0,0,0,2.768,33.6Z" transform="translate(0 4.362)" fill="#cfd8dc"/>
  <path id="Path_83" data-name="Path 83" d="M30.537,0H10.768A2.771,2.771,0,0,0,8,2.768V6.722a2.771,2.771,0,0,0,2.768,2.768H30.537A2.771,2.771,0,0,0,33.3,6.722V2.768A2.771,2.771,0,0,0,30.537,0Z" transform="translate(4.652)" fill="#ffc107"/>
  <path id="Path_93" data-name="Path 93" d="M5,0A5,5,0,1,1,0,5,5,5,0,0,1,5,0Z" fill="#ffc107"/>
  <path id="Path_84" data-name="Path 84" d="M29.211,9.872H14.186a1.186,1.186,0,1,1,0-2.372H29.211a1.186,1.186,0,1,1,0,2.372Z" transform="translate(7.56 4.362)"/>
  <path id="Path_85" data-name="Path 85" d="M29.211,12.872H14.186a1.186,1.186,0,0,1,0-2.372H29.211a1.186,1.186,0,1,1,0,2.372Z" transform="translate(7.56 6.106)"/>
  <path id="Path_86" data-name="Path 86" d="M29.211,15.872H14.186a1.186,1.186,0,1,1,0-2.372H29.211a1.186,1.186,0,1,1,0,2.372Z" transform="translate(7.56 7.851)"/>
  <path id="Path_87" data-name="Path 87" d="M29.211,18.872H14.186a1.186,1.186,0,1,1,0-2.372H29.211a1.186,1.186,0,1,1,0,2.372Z" transform="translate(7.56 9.595)"/>
  <path id="Path_88" data-name="Path 88" d="M29.211,21.872H14.186a1.186,1.186,0,0,1,0-2.372H29.211a1.186,1.186,0,1,1,0,2.372Z" transform="translate(7.56 11.34)"/>
  <path id="Path_89" data-name="Path 89" d="M14.629,33.6H2.768A2.771,2.771,0,0,1,0,30.828V10.268A2.771,2.771,0,0,1,2.768,7.5H14.629A2.771,2.771,0,0,1,17.4,10.268v20.56A2.771,2.771,0,0,1,14.629,33.6ZM2.768,9.872a.4.4,0,0,0-.4.4v20.56a.4.4,0,0,0,.4.4H14.629a.4.4,0,0,0,.4-.4V10.268a.4.4,0,0,0-.4-.4Z" transform="translate(0 4.362)"/>
  <path id="Path_90" data-name="Path 90" d="M29.211,24.872H14.186a1.186,1.186,0,0,1,0-2.372H29.211a1.186,1.186,0,1,1,0,2.372Z" transform="translate(7.56 13.085)"/>
  <path id="Path_91" data-name="Path 91" d="M30.537,9.489H10.768A2.771,2.771,0,0,1,8,6.722V2.768A2.771,2.771,0,0,1,10.768,0H30.537A2.771,2.771,0,0,1,33.3,2.768V6.722A2.771,2.771,0,0,1,30.537,9.489ZM10.768,2.372a.4.4,0,0,0-.4.4V6.722a.4.4,0,0,0,.4.4H30.537a.4.4,0,0,0,.4-.4V2.768a.4.4,0,0,0-.4-.4Z" transform="translate(4.652)"/>
  <path id="Path_92" data-name="Path 92" d="M4.745,9.489A4.745,4.745,0,1,1,9.489,4.745,4.75,4.75,0,0,1,4.745,9.489Zm0-7.117A2.372,2.372,0,1,0,7.117,4.745,2.375,2.375,0,0,0,4.745,2.372Z"/>
</svg>
