<svg xmlns="http://www.w3.org/2000/svg" viewBox="0 0 45.192 45.192">
  <g id="calendar" transform="translate(0 0)">
    <path id="Path_171" data-name="Path 171" d="M22.6,132.089a12.162,12.162,0,0,1,2.022-6.722,2.811,2.811,0,0,1-.894-4.95l3.766-2.825a2.834,2.834,0,0,1,2.1-.537,2.816,2.816,0,0,1,2.393,3.145,12.23,12.23,0,0,1,2.855-.35c.318,0,.629.024.941.047V106.668H0V126.44a6.6,6.6,0,0,0,6.591,6.59H22.644c-.023-.312-.047-.623-.047-.941Zm0,0" transform="translate(0 -97.253)" fill="#cfd8dc"/>
    <path id="Path_172" data-name="Path 172" d="M35.777,27.923v.942H0v-.942a6.6,6.6,0,0,1,6.591-6.591h22.6a6.6,6.6,0,0,1,6.59,6.591Zm0,0" transform="translate(0 -19.449)" fill="#ffc107"/>
    <path id="Path_173" data-name="Path 173" d="M298.045,287.689a10.357,10.357,0,1,1-10.356-10.357A10.356,10.356,0,0,1,298.045,287.689Zm0,0" transform="translate(-252.853 -252.853)" fill="#ffc107"/>
    <path id="Path_174" data-name="Path 174" d="M157.806,23.215h-7.532a.942.942,0,0,1,0-1.883h7.532a.942.942,0,0,1,0,1.883Zm0,0" transform="translate(-136.151 -19.449)"/>
    <path id="Path_175" data-name="Path 175" d="M34.836,87.215H.942a.942.942,0,0,1,0-1.883H34.836a.942.942,0,0,1,0,1.883Zm0,0" transform="translate(0 -77.8)"/>
    <path id="Path_176" data-name="Path 176" d="M107.609,5.649a.942.942,0,0,1-.941-.942V.942a.941.941,0,1,1,1.883,0V4.707A.942.942,0,0,1,107.609,5.649Zm0,0" transform="translate(-97.253 0)"/>
    <path id="Path_177" data-name="Path 177" d="M278.274,5.649a.942.942,0,0,1-.942-.942V.942a.942.942,0,1,1,1.883,0V4.707A.942.942,0,0,1,278.274,5.649Zm0,0" transform="translate(-252.853 0)"/>
    <path id="Path_178" data-name="Path 178" d="M326.591,42.045a.942.942,0,0,1-.942-.942V27.923a4.713,4.713,0,0,0-4.707-4.707.942.942,0,0,1,0-1.883,6.6,6.6,0,0,1,6.59,6.591V41.1A.942.942,0,0,1,326.591,42.045Zm0,0" transform="translate(-291.755 -19.449)"/>
    <path id="Path_179" data-name="Path 179" d="M21.654,55.226H6.591A6.6,6.6,0,0,1,0,48.636V27.923a6.6,6.6,0,0,1,6.591-6.591.942.942,0,0,1,0,1.883,4.713,4.713,0,0,0-4.708,4.707V48.636a4.713,4.713,0,0,0,4.708,4.707H21.654a.941.941,0,1,1,0,1.883Zm0,0" transform="translate(0 -19.449)"/>
    <path id="Path_180" data-name="Path 180" d="M90.04,166.279a4.713,4.713,0,0,1-4.708-4.707.942.942,0,1,1,1.883,0,2.825,2.825,0,1,0,2.825-2.824H88.157a.941.941,0,0,1,0-1.883H90.04a2.825,2.825,0,1,0-2.825-2.825.942.942,0,0,1-1.883,0,4.708,4.708,0,1,1,7.528,3.766,4.706,4.706,0,0,1-2.821,8.474Zm0,0" transform="translate(-77.8 -136.151)"/>
    <path id="Path_181" data-name="Path 181" d="M218.055,166.272a.942.942,0,0,1-.942-.941V152.539l-2.158,2.158a.941.941,0,1,1-1.331-1.332l3.766-3.766a.941.941,0,0,1,1.606.666v15.064A.942.942,0,0,1,218.055,166.272Zm0,0" transform="translate(-194.517 -136.144)"/>
    <path id="Path_182" data-name="Path 182" d="M287.689,298.045a10.357,10.357,0,1,1,10.356-10.356A10.369,10.369,0,0,1,287.689,298.045Zm0-18.83a8.474,8.474,0,1,0,8.474,8.474A8.484,8.484,0,0,0,287.689,279.215Zm0,0" transform="translate(-252.853 -252.853)"/>
    <path id="Path_183" data-name="Path 183" d="M452.7,250.045a.948.948,0,0,1-.565-.188l-3.766-2.824a.941.941,0,1,1,1.128-1.507l3.766,2.825a.941.941,0,0,1-.563,1.695Zm0,0" transform="translate(-408.45 -223.683)"/>
    <path id="Path_184" data-name="Path 184" d="M278.286,250.045a.941.941,0,0,1-.563-1.695l3.766-2.825a.941.941,0,1,1,1.128,1.507l-3.766,2.824A.948.948,0,0,1,278.286,250.045Zm0,0" transform="translate(-252.865 -223.683)"/>
    <path id="Path_185" data-name="Path 185" d="M388.707,331.3a.946.946,0,0,1-.666-.275l-3.766-3.766a.948.948,0,0,1-.275-.666v-5.649a.941.941,0,1,1,1.883,0V326.2l3.491,3.491a.941.941,0,0,1-.667,1.606Zm0,0" transform="translate(-350.106 -291.755)"/>
  </g>
</svg>
