<svg id="dead" xmlns="http://www.w3.org/2000/svg" viewBox="0 0 92.542 92.542">
  <path id="Path_94" data-name="Path 94" d="M92.542,46.271A46.271,46.271,0,1,1,46.271,0,46.271,46.271,0,0,1,92.542,46.271Zm0,0" fill="#ffc107"/>
  <path id="Path_95" data-name="Path 95" d="M46.271,92.542A46.271,46.271,0,1,1,92.542,46.271,46.322,46.322,0,0,1,46.271,92.542Zm0-88.686A42.415,42.415,0,1,0,88.686,46.271,42.466,42.466,0,0,0,46.271,3.856Zm0,0"/>
  <path id="Path_96" data-name="Path 96" d="M172.343,345.188H129.928a1.928,1.928,0,1,1,0-3.856h42.415a1.928,1.928,0,0,1,0,3.856Zm0,0" transform="translate(-104.864 -279.638)"/>
  <path id="Path_97" data-name="Path 97" d="M124.014,147.294a1.938,1.938,0,0,1-1.365-.563l-15.423-15.423a1.928,1.928,0,1,1,2.726-2.726L125.375,144a1.926,1.926,0,0,1-1.361,3.289Zm0,0" transform="translate(-87.383 -104.878)"/>
  <path id="Path_98" data-name="Path 98" d="M108.59,147.294A1.926,1.926,0,0,1,107.225,144l15.423-15.423a1.928,1.928,0,1,1,2.727,2.726L109.951,146.73A1.921,1.921,0,0,1,108.59,147.294Zm0,0" transform="translate(-87.382 -104.878)"/>
  <path id="Path_99" data-name="Path 99" d="M316.014,147.294a1.938,1.938,0,0,1-1.365-.563l-15.423-15.423a1.928,1.928,0,1,1,2.726-2.726L317.375,144a1.926,1.926,0,0,1-1.361,3.289Zm0,0" transform="translate(-244.679 -104.878)"/>
  <path id="Path_100" data-name="Path 100" d="M300.59,147.294A1.926,1.926,0,0,1,299.225,144l15.423-15.423a1.928,1.928,0,0,1,2.727,2.726L301.951,146.73a1.921,1.921,0,0,1-1.361.563Zm0,0" transform="translate(-244.679 -104.878)"/>
</svg>
