<svg xmlns="http://www.w3.org/2000/svg" viewBox="0 0 34.615 37.764">
  <g id="exit_2_" data-name="exit (2)" transform="translate(-21.35 0)">
    <path id="Path_107" data-name="Path 107" d="M78.963,18.887a2.36,2.36,0,1,1,0-4.72h8.654V3.94A3.934,3.934,0,0,0,83.684.006H64.8a.787.787,0,0,0-.787.787V32.261a.787.787,0,0,0,.787.787H83.684a3.934,3.934,0,0,0,3.934-3.934V18.887Z" transform="translate(-39.519 -0.006)" fill="#455a64"/>
    <path id="Path_108" data-name="Path 108" d="M35.025,4.105,26.087.276A3.4,3.4,0,0,0,21.35,3.4V30.534a3.394,3.394,0,0,0,2.06,3.123l8.937,3.831a3.4,3.4,0,0,0,4.738-3.123V7.229A3.394,3.394,0,0,0,35.025,4.105Z" transform="translate(0 0)" fill="#ffc107"/>
    <g id="Group_11" data-name="Group 11" transform="translate(32.364 17.308)">
      <path id="SVGCleanerId_0" d="M171.47,239.391a.787.787,0,0,1-.787-.787v-3.147a.787.787,0,1,1,1.573,0V238.6A.787.787,0,0,1,171.47,239.391Z" transform="translate(-170.683 -234.671)"/>
    </g>
    <path id="Path_109" data-name="Path 109" d="M273.264,155.257a.787.787,0,0,0-.171-.858l-4.72-4.72a.787.787,0,0,0-1.112,1.112l3.378,3.378H256.8a.787.787,0,0,0,0,1.573h13.835l-3.377,3.377a.787.787,0,0,0,1.093,1.132l.019-.019,4.72-4.72A.789.789,0,0,0,273.264,155.257Z" transform="translate(-217.359 -138.436)" fill="#ffc107"/>
    <g id="Group_12" data-name="Group 12" transform="translate(32.364 17.308)">
      <path id="SVGCleanerId_0_1_" d="M171.47,239.391a.787.787,0,0,1-.787-.787v-3.147a.787.787,0,1,1,1.573,0V238.6A.787.787,0,0,1,171.47,239.391Z" transform="translate(-170.683 -234.671)" fill="#455a64"/>
    </g>
    <g id="Group_13" data-name="Group 13" transform="translate(32.364 17.308)">
      <path id="SVGCleanerId_0_2_" d="M171.47,239.391a.787.787,0,0,1-.787-.787v-3.147a.787.787,0,1,1,1.573,0V238.6A.787.787,0,0,1,171.47,239.391Z" transform="translate(-170.683 -234.671)"/>
    </g>
    <path id="Path_110" data-name="Path 110" d="M272.537,214.911H256.8a.787.787,0,0,1,0-1.573h15.734a.787.787,0,1,1,0,1.573Z" transform="translate(-217.359 -197.604)"/>
    <path id="Path_111" data-name="Path 111" d="M406.118,160.483a.787.787,0,0,1-.557-1.344l4.165-4.163-4.165-4.163a.787.787,0,0,1,1.112-1.112l4.72,4.72a.787.787,0,0,1,0,1.112l-4.72,4.72A.786.786,0,0,1,406.118,160.483Z" transform="translate(-355.66 -138.455)"/>
    <path id="Path_112" data-name="Path 112" d="M222,289.926h-7.867a.787.787,0,0,1,0-1.573H222a2.36,2.36,0,0,0,2.36-2.36v-7.867a.787.787,0,1,1,1.573,0v7.867A3.934,3.934,0,0,1,222,289.926Z" transform="translate(-177.838 -256.884)"/>
    <path id="Path_113" data-name="Path 113" d="M86.831,12.593a.787.787,0,0,1-.787-.787V3.94a2.36,2.36,0,0,0-2.36-2.36H64.8a.787.787,0,1,1,0-1.573H83.684A3.934,3.934,0,0,1,87.617,3.94v7.867A.787.787,0,0,1,86.831,12.593Z" transform="translate(-39.519 -0.006)"/>
    <g id="Group_14" data-name="Group 14" transform="translate(32.364 17.308)">
      <path id="SVGCleanerId_0_3_" d="M171.47,239.391a.787.787,0,0,1-.787-.787v-3.147a.787.787,0,1,1,1.573,0V238.6A.787.787,0,0,1,171.47,239.391Z" transform="translate(-170.683 -234.671)"/>
    </g>
    <path id="Path_114" data-name="Path 114" d="M33.687,37.773a3.384,3.384,0,0,1-1.341-.275L23.41,33.667a3.394,3.394,0,0,1-2.06-3.122V3.409A3.4,3.4,0,0,1,26.087.287l8.937,3.831a3.394,3.394,0,0,1,2.06,3.122V34.376A3.4,3.4,0,0,1,33.687,37.773ZM24.747,1.585a1.827,1.827,0,0,0-1.824,1.824V30.545a1.822,1.822,0,0,0,1.1,1.677l8.939,3.831a1.807,1.807,0,0,0,.724.146,1.827,1.827,0,0,0,1.824-1.824V7.24a1.822,1.822,0,0,0-1.1-1.677l-8.943-3.83A1.806,1.806,0,0,0,24.747,1.585Z" transform="translate(0 -0.011)"/>
  </g>
</svg>
