<svg xmlns="http://www.w3.org/2000/svg" viewBox="0 0 37.616 39.412">
  <g id="gears" transform="translate(-0.024)">
    <path id="Path_115" data-name="Path 115" d="M22.67,21.581a9.551,9.551,0,0,0,0-2.9l2.407-1.888a1.465,1.465,0,0,0,.361-1.874l-1.553-2.692A1.464,1.464,0,0,0,22.08,11.6l-2.836,1.143a9.164,9.164,0,0,0-2.5-1.448L16.31,8.27a1.462,1.462,0,0,0-1.442-1.25h-3.1a1.462,1.462,0,0,0-1.442,1.251l-.43,3.03A9.22,9.22,0,0,0,7.4,12.748L4.549,11.6a1.464,1.464,0,0,0-1.8.622l-1.552,2.69a1.461,1.461,0,0,0,.366,1.875l2.4,1.877a9.32,9.32,0,0,0-.112,1.457,9.582,9.582,0,0,0,.11,1.445L1.555,23.458a1.465,1.465,0,0,0-.361,1.874l1.553,2.692a1.464,1.464,0,0,0,1.806.622L7.39,27.5a9.164,9.164,0,0,0,2.5,1.448l.43,3.028a1.464,1.464,0,0,0,1.442,1.251h3.1a1.462,1.462,0,0,0,1.442-1.251l.43-3.03A9.22,9.22,0,0,0,19.235,27.5l2.849,1.143a1.459,1.459,0,0,0,1.8-.622l1.552-2.69a1.461,1.461,0,0,0-.366-1.875Z" transform="translate(0.627 4.508)" fill="#ffc107"/>
    <circle id="Ellipse_4" data-name="Ellipse 4" cx="4.105" cy="4.105" r="4.105" transform="translate(9.837 20.527)" fill="#fff"/>
    <path id="Path_116" data-name="Path 116" d="M20.427,11.853a4.927,4.927,0,1,1,4.927-4.927A4.933,4.933,0,0,1,20.427,11.853Zm0-7.39A2.463,2.463,0,1,0,22.89,6.927,2.466,2.466,0,0,0,20.427,4.463Z" transform="translate(9.938 1.284)"/>
    <path id="Path_117" data-name="Path 117" d="M18.982,12.248a1.232,1.232,0,0,1-1.232-1.232V7.732a1.232,1.232,0,0,1,2.463,0v3.284A1.232,1.232,0,0,1,18.982,12.248Z" transform="translate(11.383 4.174)"/>
    <path id="Path_118" data-name="Path 118" d="M18.982,5.748A1.232,1.232,0,0,1,17.75,4.516V1.232a1.232,1.232,0,0,1,2.463,0V4.516A1.232,1.232,0,0,1,18.982,5.748Z" transform="translate(11.383)"/>
    <path id="Path_119" data-name="Path 119" d="M20.933,6.236a1.232,1.232,0,0,1-.617-2.3l2.841-1.642A1.232,1.232,0,0,1,24.39,4.428L21.549,6.07a1.218,1.218,0,0,1-.616.166Z" transform="translate(12.635 1.367)"/>
    <path id="Path_120" data-name="Path 120" d="M15.3,9.476a1.232,1.232,0,0,1-.617-2.3l2.841-1.642a1.232,1.232,0,0,1,1.233,2.133L15.918,9.31A1.214,1.214,0,0,1,15.3,9.476Z" transform="translate(9.019 3.448)"/>
    <path id="Path_121" data-name="Path 121" d="M18.141,6.236a1.218,1.218,0,0,1-.616-.166L14.685,4.428a1.232,1.232,0,0,1,1.233-2.133l2.841,1.642a1.232,1.232,0,0,1-.617,2.3Z" transform="translate(9.019 1.367)"/>
    <path id="Path_122" data-name="Path 122" d="M23.772,9.476a1.218,1.218,0,0,1-.616-.166L20.316,7.668a1.232,1.232,0,0,1,1.233-2.133L24.39,7.177a1.232,1.232,0,0,1-.617,2.3Z" transform="translate(12.635 3.448)"/>
    <path id="Path_123" data-name="Path 123" d="M10.427,21.853a4.927,4.927,0,1,1,4.927-4.927A4.933,4.933,0,0,1,10.427,21.853Zm0-7.39a2.463,2.463,0,1,0,2.463,2.463A2.466,2.466,0,0,0,10.427,14.463Z" transform="translate(3.516 7.706)"/>
    <path id="Path_124" data-name="Path 124" d="M15.642,35.559h-3.4a2.038,2.038,0,0,1-2.008-1.742L9.8,30.751a10.432,10.432,0,0,1-2.417-1.4L4.509,30.509a2.043,2.043,0,0,1-2.516-.867l-1.7-2.948A2.038,2.038,0,0,1,.8,24.085l2.437-1.913a10.9,10.9,0,0,1-.089-1.393,11.1,11.1,0,0,1,.09-1.406l-2.432-1.9a2.039,2.039,0,0,1-.511-2.613l1.7-2.944a2.043,2.043,0,0,1,2.513-.869l2.885,1.159a10.6,10.6,0,0,1,2.406-1.4l.437-3.068A2.039,2.039,0,0,1,12.243,6h3.4a2.038,2.038,0,0,1,2.008,1.742l.437,3.066a10.443,10.443,0,0,1,2.419,1.4l2.871-1.158a2.043,2.043,0,0,1,2.516.867l1.7,2.948a2.038,2.038,0,0,1-.506,2.609l-2.437,1.913a10.9,10.9,0,0,1,.089,1.394,11.1,11.1,0,0,1-.09,1.406l2.432,1.9a2.039,2.039,0,0,1,.511,2.613l-1.7,2.944a2.041,2.041,0,0,1-2.513.869l-2.885-1.159a10.538,10.538,0,0,1-2.406,1.4l-.437,3.069a2.036,2.036,0,0,1-2.007,1.742ZM12.621,33.1h2.644l.486-3.421a1.233,1.233,0,0,1,.839-1,8.017,8.017,0,0,0,2.856-1.657,1.227,1.227,0,0,1,1.283-.227l3.217,1.291,1.322-2.291-2.71-2.115a1.232,1.232,0,0,1-.475-.971v-.016a1.257,1.257,0,0,1,.025-.248,8.337,8.337,0,0,0,.168-1.665,8.218,8.218,0,0,0-.168-1.665,1.232,1.232,0,0,1,.447-1.217l2.715-2.13-1.322-2.292-3.2,1.291a1.231,1.231,0,0,1-1.276-.22,8.022,8.022,0,0,0-2.875-1.662,1.236,1.236,0,0,1-.844-1l-.486-3.422H12.621l-.488,3.421a1.233,1.233,0,0,1-.839,1,8,8,0,0,0-2.856,1.657,1.228,1.228,0,0,1-1.283.227L3.939,13.474,2.617,15.764l2.71,2.115a1.232,1.232,0,0,1,.475.971,1.427,1.427,0,0,1-.025.264A8.336,8.336,0,0,0,5.61,20.78a8.218,8.218,0,0,0,.168,1.665,1.232,1.232,0,0,1-.447,1.217l-2.715,2.13,1.322,2.292,3.2-1.291a1.227,1.227,0,0,1,1.276.22,8.025,8.025,0,0,0,2.875,1.662,1.236,1.236,0,0,1,.844,1Zm12.944-7.07h.016Z" transform="translate(0 3.853)"/>
  </g>
</svg>
