<svg id="list" xmlns="http://www.w3.org/2000/svg" viewBox="0 0 35.772 35.772">
  <g id="Layer_3">
    <g id="Group_19" data-name="Group 19">
      <path id="Path_211" data-name="Path 211" d="M6.335,0H2.608A2.611,2.611,0,0,0,0,2.608V6.335A2.611,2.611,0,0,0,2.608,8.943H6.335A2.611,2.611,0,0,0,8.943,6.335V2.608A2.611,2.611,0,0,0,6.335,0Z" fill="#ffc107"/>
    </g>
    <g id="Group_20" data-name="Group 20" transform="translate(11.924)">
      <path id="Path_212" data-name="Path 212" d="M29.24,0H10.608A2.611,2.611,0,0,0,8,2.608V6.335a2.611,2.611,0,0,0,2.608,2.608H29.24a2.611,2.611,0,0,0,2.608-2.608V2.608A2.611,2.611,0,0,0,29.24,0Z" transform="translate(-8)" fill="#ffd760"/>
    </g>
    <g id="Group_21" data-name="Group 21" transform="translate(0 13.414)">
      <path id="Path_213" data-name="Path 213" d="M6.335,9H2.608A2.611,2.611,0,0,0,0,11.608v3.726a2.611,2.611,0,0,0,2.608,2.608H6.335a2.611,2.611,0,0,0,2.608-2.608V11.608A2.611,2.611,0,0,0,6.335,9Z" transform="translate(0 -9)" fill="#ffc107"/>
    </g>
    <g id="Group_22" data-name="Group 22" transform="translate(11.924 13.414)">
      <path id="Path_214" data-name="Path 214" d="M29.24,9H10.608A2.611,2.611,0,0,0,8,11.608v3.726a2.611,2.611,0,0,0,2.608,2.608H29.24a2.611,2.611,0,0,0,2.608-2.608V11.608A2.611,2.611,0,0,0,29.24,9Z" transform="translate(-8 -9)" fill="#ffd760"/>
    </g>
    <g id="Group_23" data-name="Group 23" transform="translate(0 26.829)">
      <path id="Path_215" data-name="Path 215" d="M6.335,18H2.608A2.611,2.611,0,0,0,0,20.608v3.726a2.611,2.611,0,0,0,2.608,2.608H6.335a2.611,2.611,0,0,0,2.608-2.608V20.608A2.611,2.611,0,0,0,6.335,18Z" transform="translate(0 -18)" fill="#ffc107"/>
    </g>
    <g id="Group_24" data-name="Group 24" transform="translate(11.924 26.829)">
      <path id="Path_216" data-name="Path 216" d="M29.24,18H10.608A2.611,2.611,0,0,0,8,20.608v3.726a2.611,2.611,0,0,0,2.608,2.608H29.24a2.611,2.611,0,0,0,2.608-2.608V20.608A2.611,2.611,0,0,0,29.24,18Z" transform="translate(-8 -18)" fill="#ffd760"/>
    </g>
  </g>
  <g id="Layer_2">
    <g id="Group_25" data-name="Group 25">
      <path id="Path_217" data-name="Path 217" d="M6.335,8.943H2.608A2.611,2.611,0,0,1,0,6.335V2.608A2.611,2.611,0,0,1,2.608,0H6.335A2.611,2.611,0,0,1,8.943,2.608V6.335A2.611,2.611,0,0,1,6.335,8.943ZM2.608,2.236a.373.373,0,0,0-.373.373V6.335a.373.373,0,0,0,.373.373H6.335a.373.373,0,0,0,.373-.373V2.608a.373.373,0,0,0-.373-.373Z"/>
    </g>
    <g id="Group_26" data-name="Group 26" transform="translate(11.924)">
      <path id="Path_218" data-name="Path 218" d="M29.24,8.943H10.608A2.611,2.611,0,0,1,8,6.335V2.608A2.611,2.611,0,0,1,10.608,0H29.24a2.611,2.611,0,0,1,2.608,2.608V6.335A2.611,2.611,0,0,1,29.24,8.943ZM10.608,2.236a.373.373,0,0,0-.373.373V6.335a.373.373,0,0,0,.373.373H29.24a.373.373,0,0,0,.373-.373V2.608a.373.373,0,0,0-.373-.373Z" transform="translate(-8)"/>
    </g>
    <g id="Group_27" data-name="Group 27" transform="translate(0 13.414)">
      <path id="Path_219" data-name="Path 219" d="M6.335,17.943H2.608A2.611,2.611,0,0,1,0,15.335V11.608A2.611,2.611,0,0,1,2.608,9H6.335a2.611,2.611,0,0,1,2.608,2.608v3.726A2.611,2.611,0,0,1,6.335,17.943ZM2.608,11.236a.373.373,0,0,0-.373.373v3.726a.373.373,0,0,0,.373.373H6.335a.373.373,0,0,0,.373-.373V11.608a.373.373,0,0,0-.373-.373Z" transform="translate(0 -9)"/>
    </g>
    <g id="Group_28" data-name="Group 28" transform="translate(11.924 13.414)">
      <path id="Path_220" data-name="Path 220" d="M29.24,17.943H10.608A2.611,2.611,0,0,1,8,15.335V11.608A2.611,2.611,0,0,1,10.608,9H29.24a2.611,2.611,0,0,1,2.608,2.608v3.726A2.611,2.611,0,0,1,29.24,17.943ZM10.608,11.236a.373.373,0,0,0-.373.373v3.726a.373.373,0,0,0,.373.373H29.24a.373.373,0,0,0,.373-.373V11.608a.373.373,0,0,0-.373-.373Z" transform="translate(-8 -9)"/>
    </g>
    <g id="Group_29" data-name="Group 29" transform="translate(0 26.829)">
      <path id="Path_221" data-name="Path 221" d="M6.335,26.943H2.608A2.611,2.611,0,0,1,0,24.335V20.608A2.611,2.611,0,0,1,2.608,18H6.335a2.611,2.611,0,0,1,2.608,2.608v3.726A2.611,2.611,0,0,1,6.335,26.943ZM2.608,20.236a.373.373,0,0,0-.373.373v3.726a.373.373,0,0,0,.373.373H6.335a.373.373,0,0,0,.373-.373V20.608a.373.373,0,0,0-.373-.373Z" transform="translate(0 -18)"/>
    </g>
    <g id="Group_30" data-name="Group 30" transform="translate(11.924 26.829)">
      <path id="Path_222" data-name="Path 222" d="M29.24,26.943H10.608A2.611,2.611,0,0,1,8,24.335V20.608A2.611,2.611,0,0,1,10.608,18H29.24a2.611,2.611,0,0,1,2.608,2.608v3.726A2.611,2.611,0,0,1,29.24,26.943ZM10.608,20.236a.373.373,0,0,0-.373.373v3.726a.373.373,0,0,0,.373.373H29.24a.373.373,0,0,0,.373-.373V20.608a.373.373,0,0,0-.373-.373Z" transform="translate(-8 -18)"/>
    </g>
  </g>
</svg>
