<svg xmlns="http://www.w3.org/2000/svg" viewBox="0 0 24.974 33.299"><g transform="translate(-3)"><path d="M24.562,28.48H5.831A2.082,2.082,0,0,1,3.75,26.4V11.831A2.082,2.082,0,0,1,5.831,9.75h18.73a2.082,2.082,0,0,1,2.081,2.081V26.4A2.082,2.082,0,0,1,24.562,28.48Z" transform="translate(0.291 3.778)" fill="#ffc107"/><path d="M24.852,29.812H6.122A3.126,3.126,0,0,1,3,26.69V12.122A3.126,3.126,0,0,1,6.122,9h18.73a3.126,3.126,0,0,1,3.122,3.122V26.69A3.126,3.126,0,0,1,24.852,29.812ZM6.122,11.081a1.042,1.042,0,0,0-1.041,1.041V26.69A1.042,1.042,0,0,0,6.122,27.73h18.73a1.042,1.042,0,0,0,1.041-1.041V12.122a1.042,1.042,0,0,0-1.041-1.041Z" transform="translate(0 3.487)" fill="#ffc107"/><path d="M24.852,29.812H6.122A3.126,3.126,0,0,1,3,26.69V12.122A3.126,3.126,0,0,1,6.122,9h18.73a3.126,3.126,0,0,1,3.122,3.122V26.69A3.126,3.126,0,0,1,24.852,29.812ZM6.122,11.081a1.042,1.042,0,0,0-1.041,1.041V26.69A1.042,1.042,0,0,0,6.122,27.73h18.73a1.042,1.042,0,0,0,1.041-1.041V12.122a1.042,1.042,0,0,0-1.041-1.041Z" transform="translate(0 3.487)"/><path d="M21.609,14.568a1.041,1.041,0,0,1-1.041-1.041v-5.2a6.243,6.243,0,1,0-12.487,0v5.2a1.041,1.041,0,1,1-2.081,0v-5.2a8.325,8.325,0,1,1,16.649,0v5.2A1.041,1.041,0,0,1,21.609,14.568Z" transform="translate(1.162)"/></g></svg>
