<svg xmlns="http://www.w3.org/2000/svg" viewBox="0 0 25 30.997"><g transform="translate(-2 -41.543)"><g transform="translate(8.29 42.969)"><path d="M10.926,19.1A6.176,6.176,0,1,1,17.1,12.926,6.183,6.183,0,0,1,10.926,19.1Z" transform="translate(-4.75 -6.75)" fill="#ffc107"/></g><g transform="translate(2 58.763)"><path d="M25.75,30.527H.75V24.351c0-4.2,3.088-7.6,6.9-7.6H18.853c3.809,0,6.9,3.4,6.9,7.6Z" transform="translate(-0.75 -16.75)" fill="#ffc107"/></g><g transform="translate(6.866 41.543)"><path d="M11.6,21.2a7.6,7.6,0,1,1,7.6-7.6A7.609,7.609,0,0,1,11.6,21.2Zm0-12.352A4.751,4.751,0,1,0,16.352,13.6,4.756,4.756,0,0,0,11.6,8.85Z" transform="translate(-4 -6)"/></g><g transform="translate(2 58.621)"><path d="M23.828,29.919a1.244,1.244,0,0,1-1.172-1.3v-4.35a5.4,5.4,0,0,0-5.078-5.655H7.422a5.4,5.4,0,0,0-5.078,5.655v4.35a1.244,1.244,0,0,1-1.172,1.3A1.244,1.244,0,0,1,0,28.614v-4.35C0,19.708,3.33,16,7.422,16H17.578C21.67,16,25,19.708,25,24.265v4.35A1.244,1.244,0,0,1,23.828,29.919Z" transform="translate(0 -16)"/></g></g></svg>
