<svg id="photos" xmlns="http://www.w3.org/2000/svg" viewBox="0 0 39.574 39.574">
  <path id="Path_70" data-name="Path 70" d="M11.141,20.1C10.063,20.1.618,19.99.618,16.338V10.324H21.666v6.014c0,3.652-9.447,3.758-10.525,3.758Z" transform="translate(0.401 6.699)" fill="#ffc107"/>
  <path id="Path_71" data-name="Path 71" d="M11.141,15.867c-1.078,0-10.523-.1-10.523-3.535V6.676H21.666v5.656c0,3.436-9.447,3.535-10.525,3.535Z" transform="translate(0.401 4.332)" fill="#ffd54f"/>
  <path id="Path_72" data-name="Path 72" d="M11.141,11.638c-1.078,0-10.523-.092-10.523-3.311v-5.3H21.666v5.3c0,3.219-9.447,3.311-10.525,3.311Z" transform="translate(0.401 1.966)" fill="#ffc107"/>
  <path id="Path_73" data-name="Path 73" d="M11.141,6.521C10.063,6.521.618,6.44.618,3.636S10.063.75,11.141.75,21.665.831,21.665,3.636,12.22,6.521,11.141,6.521Z" transform="translate(0.401 0.487)" fill="#ffd54f"/>
  <path id="Path_74" data-name="Path 74" d="M27.034,18.945A3.039,3.039,0,0,0,23,19.456L22,20.7a.865.865,0,0,1-.628.323.851.851,0,0,1-.607-.19c-.02-.023-.04-.046-.063-.069a2.925,2.925,0,0,0-2.089-.869h-.015a2.89,2.89,0,0,0-2.064.869l-.612.612-2.778,1.751v.783A2.785,2.785,0,0,0,15.917,26.7H27.031a2.784,2.784,0,0,0,2.778-2.785V20.949Z" transform="translate(8.526 11.944)" fill="#4caf50"/>
  <path id="Path_75" data-name="Path 75" d="M13.237,25.864a1.238,1.238,0,0,1-.874-2.112l3.661-3.662a3.439,3.439,0,0,1,2.45-1.029,3.743,3.743,0,0,1,2.5,1.027c.028.028.053.056.078.086a1.049,1.049,0,0,0,1.461-.16L23.7,18.538a3.6,3.6,0,0,1,5.456.007l2.355,2.932a1.237,1.237,0,1,1-1.928,1.55l-2.358-2.935a1.016,1.016,0,0,0-1.6,0l-1.194,1.476a3.524,3.524,0,0,1-5.207.3,1.077,1.077,0,0,1-.092-.1,1.025,1.025,0,0,0-.646-.229h0a.984.984,0,0,0-.706.3L14.112,25.5a1.239,1.239,0,0,1-.876.361Z" transform="translate(7.787 11.22)"/>
  <path id="Path_76" data-name="Path 76" d="M28.9,31.787H14.886A2.889,2.889,0,0,1,12,28.9V14.886A2.889,2.889,0,0,1,14.886,12H28.9a2.889,2.889,0,0,1,2.886,2.886V28.9A2.889,2.889,0,0,1,28.9,31.787ZM14.886,14.473a.412.412,0,0,0-.412.412V28.9a.412.412,0,0,0,.412.412H28.9a.412.412,0,0,0,.412-.412V14.886a.412.412,0,0,0-.412-.412Z" transform="translate(7.787 7.787)"/>
  <path id="Path_77" data-name="Path 77" d="M11.542,8.245C10.362,8.245,0,8.129,0,4.122S10.362,0,11.542,0,23.085.115,23.085,4.122,12.723,8.245,11.542,8.245ZM2.579,4.122c.775.66,4.033,1.649,8.964,1.649s8.189-.989,8.964-1.649c-.775-.66-4.033-1.649-8.964-1.649S3.354,3.463,2.579,4.122Zm18.066.155h.016Z"/>
  <path id="Path_78" data-name="Path 78" d="M11.542,11.139C10.362,11.139,0,11.024,0,7.017a1.237,1.237,0,1,1,2.473,0c.359.493,3.738,1.649,9.069,1.649s8.71-1.156,9.1-1.8A1.159,1.159,0,0,1,21.865,5.7a1.292,1.292,0,0,1,1.22,1.314C23.085,11.024,12.723,11.139,11.542,11.139Z" transform="translate(0 3.701)"/>
  <path id="Path_79" data-name="Path 79" d="M11.542,15.109C10.362,15.109,0,14.994,0,10.987a1.237,1.237,0,0,1,2.468-.112c.5.653,3.85,1.761,9.074,1.761a32.454,32.454,0,0,0,4.079-.239,1.237,1.237,0,0,1,.318,2.454,34.7,34.7,0,0,1-4.4.259ZM2.473,10.987H2.49Z" transform="translate(0 6.327)"/>
  <path id="Path_80" data-name="Path 80" d="M13.737,15.354A1.237,1.237,0,0,1,12.5,14.117V2.987a1.237,1.237,0,1,1,2.473,0v11.13A1.237,1.237,0,0,1,13.737,15.354Z" transform="translate(8.111 1.136)"/>
  <path id="Path_81" data-name="Path 81" d="M11.542,26.9C10.362,26.9,0,26.781,0,22.774V2.987a1.237,1.237,0,0,1,2.473,0V22.774c.359.495,3.735,1.649,9.069,1.649,1.219,0,2.426-.059,3.586-.175a1.222,1.222,0,0,1,1.354,1.106,1.235,1.235,0,0,1-1.106,1.354c-1.243.125-2.533.188-3.834.188Z" transform="translate(0 1.136)"/>
</svg>
