<svg id="wireframe_1_" data-name="wireframe (1)" xmlns="http://www.w3.org/2000/svg" viewBox="0 0 45.365 45.365">
  <path id="Path_186" data-name="Path 186" d="M42.057,0H3.308A3.312,3.312,0,0,0,0,3.308V8.033a3.312,3.312,0,0,0,3.308,3.308H42.057a3.312,3.312,0,0,0,3.308-3.308V3.308A3.312,3.312,0,0,0,42.057,0Z" transform="translate(0 0)" fill="#ffc107"/>
  <path id="Path_187" data-name="Path 187" d="M45.365,11.835V34.518a2.832,2.832,0,0,1-2.835,2.835H2.835A2.832,2.832,0,0,1,0,34.518V11.835A2.832,2.832,0,0,1,2.835,9H42.53A2.832,2.832,0,0,1,45.365,11.835Z" transform="translate(0 8.012)" fill="#90caf9"/>
  <path id="Path_188" data-name="Path 188" d="M38.742,20.371V30.957a2.832,2.832,0,0,1-2.835,2.835H7.44c0-.038.019-.057.057-.095L27.363,13.831a2.84,2.84,0,0,1,3.894-.113Z" transform="translate(6.623 11.573)" fill="#689f38"/>
  <path id="Path_189" data-name="Path 189" d="M31.359,32H2.835A2.832,2.832,0,0,1,0,29.168V26.163l11.247-10.4a2.831,2.831,0,0,1,3.932.076Z" transform="translate(0 13.362)" fill="#8bc34a"/>
</svg>
