<svg id="primary" xmlns="http://www.w3.org/2000/svg" viewBox="0 0 45.966 45.966">
  <path id="Path_160" data-name="Path 160" d="M29.716,34.983H17.267A5.271,5.271,0,0,1,12,29.716V17.267A5.271,5.271,0,0,1,17.267,12H29.716a5.271,5.271,0,0,1,5.267,5.267V29.716A5.271,5.271,0,0,1,29.716,34.983Z" transform="translate(10.983 10.983)" fill="#4caf50"/>
  <path id="Path_161" data-name="Path 161" d="M17.716,34.983H5.267A5.271,5.271,0,0,1,0,29.716V17.267A5.271,5.271,0,0,1,5.267,12H17.716a5.271,5.271,0,0,1,5.267,5.267V29.716A5.271,5.271,0,0,1,17.716,34.983Z" transform="translate(0 10.983)" fill="#ffc107"/>
  <path id="Path_162" data-name="Path 162" d="M24.195,22.983H11.267A5.271,5.271,0,0,1,6,17.716V5.267A5.271,5.271,0,0,1,11.267,0H24.195a5.271,5.271,0,0,1,5.267,5.267V17.716A5.271,5.271,0,0,1,24.195,22.983Z" transform="translate(5.491)" fill="#2196f3"/>
  <g id="Group_17" data-name="Group 17" transform="translate(7.661 5.746)">
    <path id="Path_163" data-name="Path 163" d="M12.686,14.491a1.437,1.437,0,0,1-1.436-1.436V4.436a1.436,1.436,0,1,1,2.873,0v8.619A1.437,1.437,0,0,1,12.686,14.491Z" transform="translate(2.636 -3)" fill="#fff"/>
    <path id="Path_164" data-name="Path 164" d="M10.225,26.491H5.436A1.437,1.437,0,0,1,4,25.055V22.661a3.355,3.355,0,0,1,3.352-3.352h.958a.479.479,0,0,0,.479-.479v-.479a.479.479,0,0,0-.479-.479H5.436a1.436,1.436,0,1,1,0-2.873H8.309a3.355,3.355,0,0,1,3.352,3.352v.479a3.355,3.355,0,0,1-3.352,3.352H7.352a.479.479,0,0,0-.479.479v.958h3.352a1.436,1.436,0,0,1,0,2.873Z" transform="translate(-4 7.983)" fill="#fff"/>
    <path id="Path_165" data-name="Path 165" d="M20.309,24.432H17.436a1.436,1.436,0,1,1,0-2.873h2.873a.479.479,0,0,0,.479-.479V20.6a.479.479,0,0,0-.479-.479H17.436a1.436,1.436,0,1,1,0-2.873h2.873A3.355,3.355,0,0,1,23.661,20.6v.479A3.355,3.355,0,0,1,20.309,24.432Z" transform="translate(6.983 10.042)" fill="#fff"/>
    <path id="Path_166" data-name="Path 166" d="M20.309,22.182H17.436a1.436,1.436,0,1,1,0-2.873h2.873a.479.479,0,0,0,.479-.479v-.479a.479.479,0,0,0-.479-.479H17.436a1.436,1.436,0,1,1,0-2.873h2.873a3.355,3.355,0,0,1,3.352,3.352v.479A3.355,3.355,0,0,1,20.309,22.182Z" transform="translate(6.983 7.983)" fill="#fff"/>
  </g>
  <path id="Path_167" data-name="Path 167" d="M9.1,20.619a1.436,1.436,0,1,1,0-2.873H11.97A3.355,3.355,0,0,1,15.322,21.1v.479a3.355,3.355,0,0,1-3.352,3.352h-.958a.479.479,0,0,0-.479.479v.958h3.352a1.436,1.436,0,1,1,0,2.873H9.1A1.437,1.437,0,0,1,7.661,27.8V25.407a3.355,3.355,0,0,1,3.352-3.352h.958a.479.479,0,0,0,.479-.479V21.1a.479.479,0,0,0-.479-.479ZM17.716,12H5.267A5.271,5.271,0,0,0,0,17.267V29.716a5.271,5.271,0,0,0,5.267,5.267H17.716a5.271,5.271,0,0,0,5.267-5.267V17.267A5.271,5.271,0,0,0,17.716,12Z" transform="translate(0 10.983)" fill="#ffc107"/>
  <path id="Path_168" data-name="Path 168" d="M17.491,0H11.267A5.271,5.271,0,0,0,6,5.267V17.716a5.271,5.271,0,0,0,5.267,5.267h6.225V17.237A1.437,1.437,0,0,1,16.055,15.8V7.182a1.437,1.437,0,0,1,1.436-1.436Z" transform="translate(5.491)" fill="#2187d8"/>
  <path id="Path_169" data-name="Path 169" d="M12.686,3A1.437,1.437,0,0,0,11.25,4.436v8.619a1.437,1.437,0,0,0,1.436,1.436Z" transform="translate(10.296 2.746)" fill="#e3e2e2"/>
  <path id="Path_170" data-name="Path 170" d="M8.309,15H5.436a1.436,1.436,0,1,0,0,2.873H8.309a.479.479,0,0,1,.479.479v.479a.479.479,0,0,1-.479.479H7.352A3.355,3.355,0,0,0,4,22.661v2.394a1.437,1.437,0,0,0,1.436,1.436h4.788a1.436,1.436,0,0,0,0-2.873H6.873v-.958a.479.479,0,0,1,.479-.479h.958a3.355,3.355,0,0,0,3.352-3.352v-.479A3.355,3.355,0,0,0,8.309,15Z" transform="translate(3.661 13.729)" fill="#fff"/>
</svg>
