<svg id="search" xmlns="http://www.w3.org/2000/svg" viewBox="0 0 28.056 28.056">
  <path id="Path_141" data-name="Path 141" d="M11.106,0A11.176,11.176,0,0,0,0,11.106,11.176,11.176,0,0,0,11.106,22.211,11.176,11.176,0,0,0,22.211,11.106,11.176,11.176,0,0,0,11.106,0Zm0,0" fill="#ffc107"/>
  <path id="Path_142" data-name="Path 142" d="M27.706,26.069,19.757,18.12A11.119,11.119,0,1,0,0,11.106,11.176,11.176,0,0,0,11.107,22.211a11.359,11.359,0,0,0,7.014-2.455l7.949,7.949a1.13,1.13,0,0,0,1.637,0,1.13,1.13,0,0,0,0-1.637ZM1.754,11.106a9.352,9.352,0,1,1,9.352,9.352A9.38,9.38,0,0,1,1.754,11.106Zm0,0" transform="translate(-0.001 0)"/>
</svg>
