<svg xmlns="http://www.w3.org/2000/svg" viewBox="0 0 42.139 45.97">
  <g id="copy" transform="translate(0 0)">
    <path id="Path_153" data-name="Path 153" d="M19.262,69.332h-1.37a4.862,4.862,0,0,0-4.857,4.857v28.264a4.863,4.863,0,0,0,4.857,4.857h21.2a4.862,4.862,0,0,0,4.857-4.857V69.332s-24.7.149-24.685,0Zm0,0" transform="translate(-11.865 -63.107)" fill="#ffc107"/>
    <path id="Path_154" data-name="Path 154" d="M135.977,8.938H118.5a3.83,3.83,0,0,0-3.831,3.831V39.894a3.83,3.83,0,0,0,3.831,3.831h23.464a3.83,3.83,0,0,0,3.831-3.831V12.768a3.83,3.83,0,0,0-3.831-3.831Zm0,0" transform="translate(-104.373 -8.135)" fill="#eceff1"/>
    <path id="Path_155" data-name="Path 155" d="M133.962,36.392H111.935a5.271,5.271,0,0,1-5.267-5.267V5.267A5.272,5.272,0,0,1,111.935,0h22.027a5.272,5.272,0,0,1,5.267,5.267V31.125A5.271,5.271,0,0,1,133.962,36.392ZM111.935,2.873a2.4,2.4,0,0,0-2.394,2.394V31.125a2.4,2.4,0,0,0,2.394,2.394h22.027a2.4,2.4,0,0,0,2.394-2.394V5.267a2.4,2.4,0,0,0-2.394-2.394Zm0,0" transform="translate(-97.091)"/>
    <path id="Path_156" data-name="Path 156" d="M28.252,94.513H5.267A5.272,5.272,0,0,1,0,89.246V58.6a5.272,5.272,0,0,1,5.267-5.267h.957a1.437,1.437,0,0,1,0,2.873H5.267A2.4,2.4,0,0,0,2.873,58.6V89.246A2.4,2.4,0,0,0,5.267,91.64H28.252a2.4,2.4,0,0,0,2.394-2.394v-.957a1.437,1.437,0,1,1,2.873,0v.957A5.272,5.272,0,0,1,28.252,94.513Zm0,0" transform="translate(0 -48.544)"/>
    <path id="Path_157" data-name="Path 157" d="M207.8,152.205H193.437a1.437,1.437,0,1,1,0-2.873H207.8a1.437,1.437,0,1,1,0,2.873Zm0,0" transform="translate(-174.761 -135.924)"/>
    <path id="Path_158" data-name="Path 158" d="M207.8,216.205H193.437a1.437,1.437,0,1,1,0-2.873H207.8a1.437,1.437,0,1,1,0,2.873Zm0,0" transform="translate(-174.761 -194.178)"/>
    <path id="Path_159" data-name="Path 159" d="M207.8,280.205H193.437a1.437,1.437,0,0,1,0-2.873H207.8a1.437,1.437,0,0,1,0,2.873Zm0,0" transform="translate(-174.761 -252.432)"/>
  </g>
</svg>
