<svg xmlns="http://www.w3.org/2000/svg" viewBox="0 0 39 39">
  <g id="user" transform="translate(0 0)">
    <path id="Path_125" data-name="Path 125" d="M133.814,113.317a.822.822,0,0,0-.42-.32l-4.176-1.388-.506-2a10.61,10.61,0,0,0,2.966-5.87,2.365,2.365,0,0,0,1.664-1.961l.39-3.073a2.333,2.333,0,0,0-.552-1.818,2.384,2.384,0,0,0-.92-.653l.132-2.832.575-.564c.876-.933,1.6-2.529.086-4.839-1.172-1.771-3.143-2.67-5.863-2.67a10.159,10.159,0,0,0-5.817,1.531c-6.565.145-7.459,3.2-7.459,6.188,0,.678.162,2.2.27,3.141a2.348,2.348,0,0,0-1.6,2.519l.39,3.073a2.361,2.361,0,0,0,1.848,2.007,10.632,10.632,0,0,0,2.818,5.683l-.541,2.138L112.927,113a.813.813,0,0,0-.42.32l-.162.244a.811.811,0,0,0,.231,1.129,19.415,19.415,0,0,0,21.17,0,.812.812,0,0,0,.231-1.131Zm0,0" transform="translate(-103.661 -78.832)" fill="#eceff1"/>
    <path id="Path_126" data-name="Path 126" d="M19.5,0A19.49,19.49,0,0,0,8.92,35.863a.814.814,0,0,0,1.116-.232l4.342-1.451a.815.815,0,0,0,.531-.572l.764-3.022a.812.812,0,0,0-.234-.793,8.886,8.886,0,0,1-2.735-5.66.813.813,0,0,0-.811-.749h-.242a.729.729,0,0,1-.722-.639l-.39-3.071a.7.7,0,0,1,.176-.562.725.725,0,0,1,.546-.245h.162a.814.814,0,0,0,.808-.913c-.1-.786-.353-2.99-.353-3.734,0-2.373.467-4.506,6.1-4.566a.809.809,0,0,0,.463-.151A8.426,8.426,0,0,1,23.53,8.125c2.138,0,3.656.653,4.5,1.94,1,1.526.574,2.316.11,2.81l-.78.764a.805.805,0,0,0-.242.541l-.179,3.835a.814.814,0,0,0,.8.85.747.747,0,0,1,.551.257.7.7,0,0,1,.169.551l-.39,3.071a.748.748,0,0,1-.786.64.815.815,0,0,0-.811.746,8.878,8.878,0,0,1-2.867,5.78.812.812,0,0,0-.247.806l.731,2.892a.816.816,0,0,0,.531.572l4.334,1.44.007.012a.815.815,0,0,0,.678.361.8.8,0,0,0,.439-.13A19.488,19.488,0,0,0,19.5,0Zm0,0" fill="#ffc107"/>
    <path id="Path_127" data-name="Path 127" d="M135.159,114.582a.789.789,0,0,1-.257-.042l-4.6-1.534a.815.815,0,0,1-.531-.574l-.721-2.884a.81.81,0,0,1,.245-.8,8.884,8.884,0,0,0,2.86-5.785.813.813,0,0,1,.811-.747.746.746,0,0,0,.791-.632l.384-3.07a.708.708,0,0,0-.171-.561.718.718,0,0,0-.538-.249.811.811,0,0,1-.8-.851l.187-3.84a.81.81,0,0,1,.237-.535l.767-.767c.468-.5.9-1.287-.106-2.818-.842-1.285-2.353-1.935-4.493-1.935a8.344,8.344,0,0,0-5.1,1.383.807.807,0,0,1-.465.151c-5.634.057-6.1,2.191-6.1,4.56,0,.747.256,2.949.356,3.736a.812.812,0,0,1-.806.913.837.837,0,0,0-.7.244.717.717,0,0,0-.176.567l.384,3.071a.723.723,0,0,0,.717.632h.25a.813.813,0,0,1,.811.747,8.948,8.948,0,0,0,2.73,5.671.814.814,0,0,1,.232.79l-.752,3.009a.811.811,0,0,1-.531.574l-4.6,1.534a.812.812,0,0,1-.514-1.54l4.181-1.394.531-2.127a10.7,10.7,0,0,1-2.811-5.687A2.353,2.353,0,0,1,115,101.783l-.384-3.07A2.341,2.341,0,0,1,116.2,96.2c-.109-.943-.273-2.464-.273-3.146,0-2.982.894-6.039,7.459-6.18a10.159,10.159,0,0,1,5.83-1.539c2.722,0,4.691.9,5.852,2.67,1.514,2.313.788,3.908-.088,4.839l-.562.562-.138,2.839a2.347,2.347,0,0,1,1.467,2.471l-.384,3.07a2.355,2.355,0,0,1-1.669,1.961,10.628,10.628,0,0,1-2.959,5.871l.5,1.991L135.418,113a.811.811,0,0,1-.258,1.581Zm0,0" transform="translate(-105.684 -78.832)"/>
    <path id="Path_128" data-name="Path 128" d="M19.5,39A19.5,19.5,0,1,1,39,19.5,19.522,19.522,0,0,1,19.5,39Zm0-37.375A17.875,17.875,0,1,0,37.375,19.5,17.9,17.9,0,0,0,19.5,1.625Zm0,0" transform="translate(0 0)"/>
  </g>
</svg>
